HIERARCHY
ROOT root
{
	OFFSET	0	13.1	24.9
	CHANNELS 6  Xposition Yposition Zposition Xrotation Yrotation Zrotation
	JOINT spine_1
	{
		OFFSET	0	9.99999	0
		CHANNELS 3  Xrotation Yrotation Zrotation
		JOINT spine_2
		{
			OFFSET	0	112	-10
			CHANNELS 3  Xrotation Yrotation Zrotation
			JOINT spine_3
			{
				OFFSET	0	206.5	19.3
				CHANNELS 3  Xrotation Yrotation Zrotation
				JOINT spine_4
				{
					OFFSET	0	110.4	14.6
					CHANNELS 3  Xrotation Yrotation Zrotation
					JOINT neck_1
					{
						OFFSET	0	71.8	-50.3
						CHANNELS 3  Xrotation Yrotation Zrotation
						JOINT neck_2
						{
							OFFSET	0	86.2	-25.8
							CHANNELS 3  Xrotation Yrotation Zrotation
							JOINT head_ee
							{
								OFFSET	0	179.8	-8.7
								CHANNELS 3  Xrotation Yrotation Zrotation
								End Site
								{
									OFFSET	1	0	0
								}
							}
						}
					}
					JOINT left_clavicle
					{
						OFFSET	-43.2	22.4	-70.8
						CHANNELS 3  Xrotation Yrotation Zrotation
						JOINT left_shoulder
						{
							OFFSET	-93.9	-5.79999	48.7
							CHANNELS 3  Xrotation Yrotation Zrotation
							JOINT left_elbow
							{
								OFFSET	-291.4	-30.8	15.2
								CHANNELS 3  Xrotation Yrotation Zrotation
								JOINT left_lowarm_twist
								{
									OFFSET	-110.7	-3.89999	13.6
									CHANNELS 3  Xrotation Yrotation Zrotation
									JOINT left_hand
									{
										OFFSET	-110.7	-3.89999	13.6
										CHANNELS 3  Xrotation Yrotation Zrotation
										JOINT left_ee
										{
											OFFSET	-80.8	-5.10001	12.1
											CHANNELS 3  Xrotation Yrotation Zrotation
											End Site
											{
												OFFSET	1	0	0
											}
										}
									}
								}
							}
						}
					}
					JOINT right_clavicle
					{
						OFFSET	43.2	22.4	-70.8
						CHANNELS 3  Xrotation Yrotation Zrotation
						JOINT right_shoulder
						{
							OFFSET	93.9	-5.79999	48.7
							CHANNELS 3  Xrotation Yrotation Zrotation
							JOINT right_elbow
							{
								OFFSET	291.4	-30.8	15.2
								CHANNELS 3  Xrotation Yrotation Zrotation
								JOINT right_lowarm_twist
								{
									OFFSET	110.7	-3.89999	13.6
									CHANNELS 3  Xrotation Yrotation Zrotation
									JOINT right_hand
									{
										OFFSET	110.7	-3.89999	13.6
										CHANNELS 3  Xrotation Yrotation Zrotation
										JOINT right_ee
										{
											OFFSET	80.8	-5.10001	12.1
											CHANNELS 3  Xrotation Yrotation Zrotation
											End Site
											{
												OFFSET	1	0	0
											}
										}
									}
								}
							}
						}
					}
				}
			}
		}
	}
	JOINT left_hip
	{
		OFFSET	-82.8	-127.5	0.300001
		CHANNELS 3  Xrotation Yrotation Zrotation
		JOINT left_knee
		{
			OFFSET	-28.2	-396.7	2.2
			CHANNELS 3  Xrotation Yrotation Zrotation
			JOINT left_ankle
			{
				OFFSET	-11.7	-411.3	35.4
				CHANNELS 3  Xrotation Yrotation Zrotation
				JOINT left_toes
				{
					OFFSET	0	-60	-88.6
					CHANNELS 3  Xrotation Yrotation Zrotation
					JOINT left_foot_ee
					{
						OFFSET	-22.5	-16.5	-42.2
						CHANNELS 3  Xrotation Yrotation Zrotation
						End Site
						{
							OFFSET	1	0	0
						}
					}
				}
			}
		}
	}
	JOINT right_hip
	{
		OFFSET	82.8	-127.5	0.300001
		CHANNELS 3  Xrotation Yrotation Zrotation
		JOINT right_knee
		{
			OFFSET	28.2	-396.7	2.2
			CHANNELS 3  Xrotation Yrotation Zrotation
			JOINT right_ankle
			{
				OFFSET	11.7	-411.3	35.4
				CHANNELS 3  Xrotation Yrotation Zrotation
				JOINT right_toes
				{
					OFFSET	0	-60	-88.6
					CHANNELS 3  Xrotation Yrotation Zrotation
					JOINT right_foot_ee
					{
						OFFSET	22.5	-16.5	-42.2
						CHANNELS 3  Xrotation Yrotation Zrotation
						End Site
						{
							OFFSET	1	0	0
						}
					}
				}
			}
		}
	}
}
MOTION
Frames: 13
Frame Time: 0.02
1041.4 574.639 -1682.42 -9.35449853272 47.7267636137 20.8144940256 3.70453 -0.149522 -2.92949 3.70931 0.0371104 -2.93307 3.70498 0.466998 -2.89592 3.69327 0.00398514 -2.9333 0.537408 -0.174884 -0.807973 0.539498 0.356192 -0.89182 -0.0 0.0 -0.0 5.06637 20.5676 9.80656 -40.6397 -29.9714 68.5294 0.738944 -20.1052 0.130997 -15.1044 -0.769813 1.76567 0.635674 27.2065 14.309 -0.0 0.0 -0.0 7.45943 -14.5591 -13.9199 -17.1957 51.047 -49.2018 1.15367 29.7467 -0.306404 -6.55361 0.276484 -0.790392 1.91318 28.7197 -0.0724371 0.0 0.0 0.0 34.2786 -5.48376 -14.2418 -2.24902 0.0860459 0.334401 -4.64154 10.8886 0.686572 3.14669 -0.0 -0.0 -0.0 0.0 -0.0 4.87541 11.9913 -20.4419 -20.9783 -0.282728 -3.18891 36.793 -22.0823 4.76939 31.6078 -0.0 -0.0 0.0 0.0 0.0 
1041.4 574.639 -1682.42 -9.45722524956 48.2850097895 20.9527120019 3.70453 -0.149522 -2.92949 3.70931 0.0371104 -2.93307 3.70498 0.466998 -2.89592 3.69327 0.00398514 -2.9333 0.537408 -0.174884 -0.807973 0.539498 0.356192 -0.89182 -0.0 0.0 -0.0 5.06637 20.5676 9.80656 -40.6397 -29.9714 68.5294 0.738944 -20.1052 0.130997 -15.1044 -0.769813 1.76567 0.635674 27.2065 14.309 -0.0 0.0 -0.0 7.45943 -14.5591 -13.9199 -17.1957 51.047 -49.2018 1.15367 29.7467 -0.306404 -6.55361 0.276484 -0.790392 1.91318 28.7197 -0.0724371 0.0 0.0 0.0 34.2786 -5.48376 -14.2418 -2.24902 0.0860459 0.334401 -4.64154 10.8886 0.686572 3.14669 -0.0 -0.0 -0.0 0.0 -0.0 4.87541 11.9913 -20.4419 -20.9783 -0.282728 -3.18891 36.793 -22.0823 4.76939 31.6078 -0.0 -0.0 0.0 0.0 0.0 
1026.03291893 572.686 -1687.07155022 -10.0378292265 47.3731360097 21.7798413984 3.63016 -0.0040451 -2.93785 3.63495 0.182824 -2.93216 3.62322 0.615284 -2.87275 3.61174 0.15407 -2.93381 0.703594 -0.0125247 -0.871672 0.706498 0.698686 -0.946406 -0.0 0.0 -0.0 5.71614 20.7496 10.7659 -39.1904 -29.0324 67.8428 0.710903 -19.4003 0.12152 -15.6255 -0.804533 1.82263 0.56358 28.3967 14.2749 -0.0 0.0 -0.0 7.48372 -14.9666 -13.9308 -18.4782 50.6808 -47.7145 1.14332 29.5248 -0.301284 -6.49545 0.273635 -0.783521 1.85419 28.7383 0.309991 0.0 0.0 0.0 32.8941 -5.25294 -14.1255 -0.309068 0.0126029 0.0457552 -6.47374 8.21822 0.959988 4.19333 -0.0 -0.0 -0.0 0.0 -0.0 4.89469 13.4333 -20.2242 -20.5793 -0.288302 -3.12794 34.147 -20.744 4.46747 30.8148 -0.0 -0.0 0.0 0.0 0.0 
1026.00615058 572.686 -1686.9821815 -10.101435918 47.7009259761 21.8660624011 3.63016 -0.0040451 -2.93785 3.63495 0.182824 -2.93216 3.62322 0.615284 -2.87275 3.61174 0.15407 -2.93381 0.703594 -0.0125247 -0.871672 0.706498 0.698686 -0.946406 -0.0 0.0 -0.0 5.71614 20.7496 10.7659 -39.1904 -29.0324 67.8428 0.710903 -19.4003 0.12152 -15.6255 -0.804533 1.82263 0.56358 28.3967 14.2749 -0.0 0.0 -0.0 7.48372 -14.9666 -13.9308 -18.4782 50.6808 -47.7145 1.14332 29.5248 -0.301284 -6.49545 0.273635 -0.783521 1.85419 28.7383 0.309991 0.0 0.0 0.0 32.8941 -5.25294 -14.1255 -0.309068 0.0126029 0.0457552 -6.47374 8.21822 0.959988 4.19333 -0.0 -0.0 -0.0 0.0 -0.0 4.89469 13.4333 -20.2242 -20.5793 -0.288302 -3.12794 34.147 -20.744 4.46747 30.8148 -0.0 -0.0 0.0 0.0 0.0 
1025.95345438 572.686 -1686.80044843 -10.2339782659 48.3655674959 22.0443195537 3.63016 -0.0040451 -2.93785 3.63495 0.182824 -2.93216 3.62322 0.615284 -2.87275 3.61174 0.15407 -2.93381 0.703594 -0.0125247 -0.871672 0.706498 0.698686 -0.946406 -0.0 0.0 -0.0 5.71614 20.7496 10.7659 -39.1904 -29.0324 67.8428 0.710903 -19.4003 0.12152 -15.6255 -0.804533 1.82263 0.56358 28.3967 14.2749 -0.0 0.0 -0.0 7.48372 -14.9666 -13.9308 -18.4782 50.6808 -47.7145 1.14332 29.5248 -0.301284 -6.49545 0.273635 -0.783521 1.85419 28.7383 0.309991 0.0 0.0 0.0 32.8941 -5.25294 -14.1255 -0.309068 0.0126029 0.0457552 -6.47374 8.21822 0.959988 4.19333 -0.0 -0.0 -0.0 0.0 -0.0 4.89469 13.4333 -20.2242 -20.5793 -0.288302 -3.12794 34.147 -20.744 4.46747 30.8148 -0.0 -0.0 0.0 0.0 0.0 
1025.90890771 572.686 -1686.64020849 -10.3545285337 48.9495300248 22.2048852098 3.63016 -0.0040451 -2.93785 3.63495 0.182824 -2.93216 3.62322 0.615284 -2.87275 3.61174 0.15407 -2.93381 0.703594 -0.0125247 -0.871672 0.706498 0.698686 -0.946406 -0.0 0.0 -0.0 5.71614 20.7496 10.7659 -39.1904 -29.0324 67.8428 0.710903 -19.4003 0.12152 -15.6255 -0.804533 1.82263 0.56358 28.3967 14.2749 -0.0 0.0 -0.0 7.48372 -14.9666 -13.9308 -18.4782 50.6808 -47.7145 1.14332 29.5248 -0.301284 -6.49545 0.273635 -0.783521 1.85419 28.7383 0.309991 0.0 0.0 0.0 32.8941 -5.25294 -14.1255 -0.309068 0.0126029 0.0457552 -6.47374 8.21822 0.959988 4.19333 -0.0 -0.0 -0.0 0.0 -0.0 4.89469 13.4333 -20.2242 -20.5793 -0.288302 -3.12794 34.147 -20.744 4.46747 30.8148 -0.0 -0.0 0.0 0.0 0.0 
1005.73712387 569.146 -1689.23129697 -9.84609870876 48.3895088668 21.529812457 3.65589 -0.240703 -2.93641 3.66069 -0.0534468 -2.94577 3.66107 0.381412 -2.92148 3.64917 -0.0845606 -2.94504 1.34373 -0.768911 -2.01225 1.35534 0.32294 -2.26783 -0.0 0.0 -0.0 5.50337 18.2991 10.5456 -34.6154 -30.5064 63.9068 0.871532 -23.3511 0.180101 -15.4101 -0.790121 1.79913 0.842561 28.3281 15.8299 -0.0 0.0 -0.0 7.03911 -15.9305 -13.1235 -17.9046 50.8264 -49.2998 1.17224 30.1423 -0.315671 -8.58195 0.38021 -1.02814 1.68652 27.1097 0.609765 0.0 0.0 0.0 35.3414 -7.97756 -13.3385 -8.0875 0.247536 1.21548 0.849399 16.6533 -0.125352 5.85758 -0.0 -0.0 -0.0 0.0 -0.0 3.17101 14.578 -19.4269 -19.6245 -0.299917 -2.98191 35.6112 -18.3559 4.57114 31.8483 -0.0 -0.0 0.0 0.0 0.0 
981.461840795 576.93 -1699.29211816 -9.66296596696 49.5085302608 21.6604854985 3.56598 -0.339132 -2.9233 3.57072 -0.15251 -2.93893 3.57634 0.286631 -2.92891 3.56441 -0.179327 -2.93742 0.979367 -1.16891 -2.05668 0.990437 -0.360104 -2.34762 -0.0 0.0 -0.0 5.28631 21.0346 10.1162 -34.6736 -31.5606 59.4195 1.04721 -27.4177 0.255461 -17.2449 -0.915724 1.9976 0.788364 28.4169 15.5491 -0.0 0.0 -0.0 6.51326 -19.1484 -12.069 -19.3397 50.0358 -50.0549 1.14425 29.5449 -0.301745 -9.46908 0.428216 -1.13096 1.21599 23.2874 1.90319 0.0 0.0 0.0 34.3701 -10.153 -13.6555 -11.8439 0.30366 1.78903 2.2368 16.7458 -0.329067 6.07003 -0.0 -0.0 -0.0 0.0 -0.0 3.55686 14.7199 -19.8087 -21.2064 -0.27935 -3.22375 32.2148 -17.2423 4.20182 32.9796 -0.0 -0.0 0.0 0.0 0.0 
964.798486513 582.267 -1710.78624987 -8.56753098596 51.8057854756 21.2661395638 3.28614 -0.495152 -2.87374 3.29068 -0.311364 -2.8994 3.30472 0.137272 -2.91282 3.29303 -0.324279 -2.89798 1.2934 -1.83918 -2.16129 1.30539 -1.44366 -2.52637 -0.0 0.0 -0.0 5.19631 22.5452 9.92636 -34.4292 -33.962 56.0941 1.29199 -32.6183 0.378042 -18.2229 -0.985263 2.10174 0.826522 27.6112 15.5241 -0.0 0.0 -0.0 6.25735 -21.5455 -11.522 -20.9356 49.7997 -50.1606 1.1401 29.4555 -0.299698 -9.86026 0.449891 -1.17606 1.05226 22.07 2.43243 0.0 0.0 0.0 34.326 -11.4914 -12.6844 -15.9361 0.321893 2.41651 3.95223 19.7589 -0.584264 5.94913 -0.0 -0.0 -0.0 0.0 -0.0 3.97589 14.5337 -20.6454 -23.1978 -0.243975 -3.52727 33.5596 -16.004 4.32521 33.7792 -0.0 -0.0 0.0 0.0 0.0 
948.136141214 586.193 -1716.54881838 -8.05372618733 54.7480149851 21.218570011 3.10249 -0.556619 -2.84734 3.10693 -0.374384 -2.87696 3.12431 0.0806112 -2.90007 3.11277 -0.37822 -2.87646 1.13693 -2.39092 -2.45525 1.15309 -2.18172 -2.89654 -0.0 0.0 -0.0 5.31206 23.57 10.0459 -35.138 -36.3901 53.3338 1.59802 -38.3627 0.555939 -19.1793 -1.05499 2.20243 0.786226 26.9126 15.0801 -0.0 0.0 -0.0 5.74029 -21.7357 -10.751 -22.7849 49.3725 -50.0141 1.12712 29.1756 -0.293346 -10.4416 0.482673 -1.24282 1.10812 20.2014 1.23475 0.0 0.0 0.0 34.4295 -12.2009 -11.2871 -18.8446 0.307598 2.86248 6.51225 22.2546 -0.965551 6.69364 -0.0 -0.0 -0.0 0.0 -0.0 4.98403 14.232 -21.8161 -25.4635 -0.190927 -3.87089 34.1729 -14.9969 4.37486 34.4662 -0.0 -0.0 0.0 0.0 0.0 
947.39326192 586.193 -1714.44587697 -8.3191881387 56.0216508776 21.5411093024 3.10249 -0.556619 -2.84734 3.10693 -0.374384 -2.87696 3.12431 0.0806112 -2.90007 3.11277 -0.37822 -2.87646 1.13693 -2.39092 -2.45525 1.15309 -2.18172 -2.89654 -0.0 0.0 -0.0 5.31206 23.57 10.0459 -35.138 -36.3901 53.3338 1.59802 -38.3627 0.555939 -19.1793 -1.05499 2.20243 0.786226 26.9126 15.0801 -0.0 0.0 -0.0 5.74029 -21.7357 -10.751 -22.7849 49.3725 -50.0141 1.12712 29.1756 -0.293346 -10.4416 0.482673 -1.24282 1.10812 20.2014 1.23475 0.0 0.0 0.0 34.4295 -12.2009 -11.2871 -18.8446 0.307598 2.86248 6.51225 22.2546 -0.965551 6.69364 -0.0 -0.0 -0.0 0.0 -0.0 4.98403 14.232 -21.8161 -25.4635 -0.190927 -3.87089 34.1729 -14.9969 4.37486 34.4662 -0.0 -0.0 0.0 0.0 0.0 
946.807535462 586.193 -1712.67209501 -8.55864308308 57.0876911962 21.8280711431 3.10249 -0.556619 -2.84734 3.10693 -0.374384 -2.87696 3.12431 0.0806112 -2.90007 3.11277 -0.37822 -2.87646 1.13693 -2.39092 -2.45525 1.15309 -2.18172 -2.89654 -0.0 0.0 -0.0 5.31206 23.57 10.0459 -35.138 -36.3901 53.3338 1.59802 -38.3627 0.555939 -19.1793 -1.05499 2.20243 0.786226 26.9126 15.0801 -0.0 0.0 -0.0 5.74029 -21.7357 -10.751 -22.7849 49.3725 -50.0141 1.12712 29.1756 -0.293346 -10.4416 0.482673 -1.24282 1.10812 20.2014 1.23475 0.0 0.0 0.0 34.4295 -12.2009 -11.2871 -18.8446 0.307598 2.86248 6.51225 22.2546 -0.965551 6.69364 -0.0 -0.0 -0.0 0.0 -0.0 4.98403 14.232 -21.8161 -25.4635 -0.190927 -3.87089 34.1729 -14.9969 4.37486 34.4662 -0.0 -0.0 0.0 0.0 0.0 
927.950091006 590.645 -1714.81918902 -9.71790553948 58.7202385694 23.1231612948 2.97806 -0.606646 -2.97644 2.98289 -0.416106 -3.00897 3.00337 0.0664423 -3.03685 2.99074 -0.413784 -3.00929 1.11951 -2.86267 -2.33276 1.13666 -3.11885 -2.80645 -0.0 0.0 -0.0 5.67297 24.5423 10.4957 -33.7694 -38.1548 53.2556 1.83642 -42.289 0.710308 -19.8768 -1.10689 2.27513 0.730679 26.31 14.5725 -0.0 0.0 -0.0 5.26873 -24.1727 -9.9572 -23.2862 49.0647 -50.6178 1.1167 28.9497 -0.288284 -9.99347 0.457342 -1.19139 0.805471 18.8839 2.66153 0.0 0.0 0.0 34.3895 -12.6996 -10.3047 -20.8171 0.285031 3.16429 8.33178 23.8454 -1.23798 7.05552 -0.0 -0.0 -0.0 0.0 -0.0 7.45463 13.28 -21.813 -27.5455 -0.130225 -4.18463 33.9172 -14.5507 4.34348 35.1529 -0.0 -0.0 0.0 0.0 0.0 
